<svg width="40" height="37" viewBox="0 0 40 37" fill="none" xmlns="http://www.w3.org/2000/svg">
<path d="M-9.39013e-07 15.5179C0.000215734 15.6671 0.0539385 15.8113 0.151366 15.9243L18.0357 36.7601C18.2725 37.0363 18.6945 37.0528 18.9521 36.7959L33.8562 21.9136C34.0875 21.6827 34.1017 21.3129 33.8885 21.065L33.8885 21.0618L33.8801 21.0536L16.0609 0.294198C15.9441 0.115518 15.7439 0.00882847 15.5303 0.0113134L0.626185 0.0113141C0.281091 0.0113712 0.00125243 0.290861 0.00121911 0.635635L-9.39013e-07 15.5179ZM1.25003 15.287L1.25003 1.2599L15.2427 1.2599L32.5623 21.4389L18.5452 35.4368L1.25003 15.287ZM3.1625 6.68508C3.1625 8.66649 4.78374 10.2845 6.76768 10.2845C8.75162 10.2845 10.3745 8.66649 10.3745 6.68508C10.3745 4.70368 8.75162 3.08401 6.76768 3.08401C4.78374 3.08401 3.16258 4.70368 3.1625 6.68508ZM4.4125 6.68508C4.4125 5.37865 5.45917 4.3326 6.76768 4.3326C8.07628 4.3326 9.12448 5.37865 9.12448 6.68508C9.12448 7.99152 8.07628 9.03594 6.76768 9.03594C5.45917 9.03594 4.4125 7.99152 4.4125 6.68508ZM8.05186 15.9682C8.05464 16.1481 8.13446 16.3182 8.27159 16.4348L9.22865 17.5728L13.9406 23.1785L13.2017 23.7995C13.0539 23.9201 12.9694 24.1016 12.9722 24.2921C12.9788 24.823 13.6034 25.1041 14.0057 24.7571L14.7463 24.1361L15.9882 25.6139L15.2476 26.2349C15.1003 26.3552 15.0158 26.5359 15.0181 26.7259C15.0248 27.2568 15.6493 27.5379 16.0516 27.1909L16.7906 26.5698L19.4583 29.7433C19.9925 30.4003 20.971 29.5791 20.4153 28.9402L17.7493 25.7683L22.1439 22.0811C22.8015 21.5475 21.9795 20.5701 21.3398 21.1251L16.9452 24.8108L15.7033 23.3329C16.8626 22.358 18.0195 21.3917 19.0188 20.5464C21.2236 18.5641 21.409 15.1568 19.4322 12.9475C17.5128 10.8024 14.2427 10.5598 12.0233 12.3476C10.8013 13.3505 9.57714 14.3896 8.35948 15.4106C8.2014 15.504 8.09247 15.6622 8.06162 15.843L8.05996 15.8495C8.05719 15.8684 8.05495 15.8874 8.05345 15.9064C8.05179 15.927 8.0513 15.9476 8.05186 15.9682ZM9.56394 16.03C10.5927 15.168 11.6276 14.2998 12.6548 13.4418C14.3694 11.922 16.9721 12.0727 18.4996 13.7799C20.0272 15.4872 19.886 18.0878 18.1822 19.6197C17.0492 20.5743 15.8767 21.5566 14.8993 22.377L10.1857 16.7697L9.56394 16.03ZM20.8597 0.659995L20.8597 0.661658C20.8675 0.802453 20.9223 0.936539 21.0159 1.04209L38.5226 21.4389L24.0286 35.9131C23.4151 36.5015 24.3233 37.4088 24.9124 36.7959L39.8166 21.9136C40.048 21.6828 40.0621 21.3128 39.8493 21.065L21.965 0.229167C21.5813 -0.236466 20.8253 0.057857 20.8582 0.659995L20.8597 0.659995Z" fill="#143AA2"/>
</svg>
