<svg width="40" height="40" viewBox="0 0 40 40" fill="none" xmlns="http://www.w3.org/2000/svg">
<path d="M39.7221 19.863C38.825 17.8734 34.8182 17.2705 31.8879 19.0792L28.8977 20.9482L27.1036 20.285C27.283 19.8027 27.283 19.3203 27.0438 18.8983C26.6252 18.0542 25.489 17.8131 24.5919 18.2954L23.2762 19.0189L20.2861 18.0542C20.1067 17.994 19.9871 17.994 19.8077 18.1145L16.2793 19.9835C16.0999 20.1041 15.9803 20.285 15.9803 20.5262C15.9803 20.7673 16.0999 20.9482 16.2793 21.0688L23.037 24.6259L17.4156 28.1831L14.246 26.1332C14.0666 26.0126 13.8274 26.0126 13.648 26.1332L10.299 27.9419C10.1196 28.0625 10 28.2433 10 28.4242C10 28.6654 10.1196 28.8463 10.299 28.9668L13.349 30.8961C12.1529 32.0417 12.0333 33.5489 12.5117 34.4533C13.0499 35.4179 14.1862 36.0811 15.9205 35.7194L15.8009 39.3368C15.8009 39.578 15.9205 39.7588 16.0999 39.8794C16.2195 39.9397 16.2793 40 16.3989 40C16.5185 40 16.5783 40 16.6979 39.9397L20.0469 38.131C20.2263 38.0104 20.3459 37.8295 20.3459 37.6487L20.4655 33.7901L26.5056 31.077L25.6684 38.7339C25.6684 38.9751 25.7282 39.1559 25.9076 39.2765C26.087 39.3971 26.3262 39.3971 26.5056 39.3368L30.034 37.4678C30.1536 37.4075 30.2732 37.2869 30.333 37.1061L31.23 34.0915L32.5457 33.368C33.5026 32.8857 33.8016 31.8005 33.3829 30.9564C33.1437 30.5344 32.7251 30.2329 32.2467 30.1124L32.7251 28.2433C33.0241 28.1228 36.0143 26.7361 36.3731 26.6155C39.3034 24.9877 40.6191 21.5511 39.7221 19.863ZM35.8349 25.47C35.5957 25.5906 32.4261 27.0375 32.1869 27.1581C31.9477 27.2184 31.7683 27.3993 31.7085 27.5802L30.931 30.5344C30.8712 30.7755 30.931 31.0167 31.1702 31.1976C31.4693 31.3785 31.8281 31.1976 31.6487 31.2579C31.9477 31.1976 32.2467 31.2579 32.3065 31.4387C32.4261 31.6799 32.2467 32.0416 31.9477 32.2225L30.4526 33.0666C30.3928 33.1269 30.333 33.1269 30.2732 33.1872C30.2134 33.2475 30.2134 33.3078 30.1536 33.368L29.2565 36.3826L26.984 37.5884L27.8213 29.9918C27.8213 29.6903 27.5821 29.3889 27.283 29.3889C27.1036 29.3889 26.9242 29.4492 26.8046 29.5697L19.6283 32.8254C19.4489 32.8857 19.2695 33.1269 19.2695 33.368L19.09 37.2266L16.9969 38.3722L17.1165 34.9356C17.1165 34.5136 16.6979 34.2121 16.2793 34.393C14.9038 34.9959 13.8872 34.5739 13.5284 33.9709C13.2294 33.368 13.4088 32.2225 14.6646 31.4387C15.0234 31.1976 15.0234 30.5947 14.6646 30.4138L11.7343 28.6051L13.8274 27.4596C17.1764 29.5697 17.0567 29.5094 17.0567 29.5094C17.2362 29.63 17.4754 29.63 17.6548 29.5094L24.3527 25.2891C24.5321 25.2288 24.6517 25.1685 24.7713 24.9877C24.8909 24.6862 24.8311 24.3848 24.5321 24.2039L17.894 20.5262L20.1665 19.3203L23.1566 20.285C23.2762 20.3453 23.4557 20.3453 23.6351 20.2247L25.1899 19.3806C25.489 19.1998 25.9076 19.2601 26.0272 19.5012C26.1468 19.6821 26.0272 19.9835 25.788 20.1644C25.4292 20.4659 25.5488 21.0688 25.9674 21.1894C26.1468 21.2496 28.7183 22.154 28.8977 22.2143C29.1369 22.2746 29.3163 22.2143 29.4958 22.0334L32.6055 20.1041C34.9976 18.5969 38.1672 19.1395 38.7054 20.4056C39.2436 21.4305 38.227 24.2039 35.8349 25.47Z" fill="#143AA2"/>
<path d="M10.3082 32.7748H1.19863V9.61802H11.9863V16.4793C11.9863 16.7243 12.1661 16.9694 12.3459 17.0306C12.5856 17.0919 12.8253 17.0306 13.0051 16.8468L17.5 11.7622L21.9949 16.8468C22.1747 17.0306 22.4144 17.0919 22.6541 17.0306C22.8938 16.9694 23.0137 16.7243 23.0137 16.4793V9.61802H33.8014V16.4793C33.8014 16.8468 34.0411 17.0919 34.4007 17.0919C34.7603 17.0919 35 16.8468 35 16.4793C35 12.7423 35 4.22703 35 0.612613C35 0.245045 34.7603 0 34.4007 0C33.9812 0 3.77568 0 0.599315 0C0.239726 0 0 0.245045 0 0.612613C0 6.30991 0 30.3856 0 33.3874C0 33.755 0.239726 34 0.599315 34H10.3082C10.6678 34 10.9075 33.755 10.9075 33.3874C10.9075 33.0198 10.6678 32.7748 10.3082 32.7748ZM21.9349 14.8865L17.9795 10.4757C17.8596 10.3532 17.6798 10.2919 17.5599 10.2919C17.3801 10.2919 17.2003 10.3532 17.1404 10.4757L13.1849 14.8865V1.22523H21.875V14.8865H21.9349ZM33.9212 8.39279H23.1336V1.22523H33.9212V8.39279ZM11.9863 1.22523V8.39279H1.19863V1.22523H11.9863Z" fill="#143AA2"/>
</svg>
