<svg width="27" height="40" viewBox="0 0 27 40" fill="none" xmlns="http://www.w3.org/2000/svg">
<path d="M22.3555 13.6364C24.1514 12 25.0803 9.93939 25.0803 7.75758V5.21212C26.133 5.21212 27 4.36364 27 3.33333V1.87879C27 0.848485 26.133 0 25.0803 0H1.91973C0.866973 0 0 0.848485 0 1.87879V3.33333C0 4.36364 0.866973 5.21212 1.91973 5.21212V7.75758C1.91973 9.93939 2.91055 12 4.6445 13.6364L11.3326 19.8182C11.3945 19.8788 11.5183 19.9394 11.5803 20C11.5183 20.0606 11.3945 20.1212 11.3326 20.1818L4.6445 26.3636C2.84862 28 1.91973 30.0606 1.91973 32.2424V34.7879C0.866973 34.7879 0 35.6364 0 36.6667V38.1212C0 39.1515 0.866973 40 1.91973 40H25.0803C26.133 40 27 39.1515 27 38.1212V36.6667C27 35.6364 26.133 34.7879 25.0803 34.7879V32.2424C25.0803 30.0606 24.0895 28 22.3555 26.3636L15.6674 20.1818C15.6055 20.1212 15.4817 20.0606 15.4197 20C15.4817 19.9394 15.6055 19.8788 15.6674 19.8182L22.3555 13.6364ZM1.23853 3.33333V1.87879C1.23853 1.51515 1.54817 1.21212 1.91973 1.21212H25.0803C25.4518 1.21212 25.7615 1.51515 25.7615 1.87879V3.33333C25.7615 3.69697 25.4518 4 25.0803 4C17.0917 4 10.156 4 1.91973 4C1.54817 4 1.23853 3.69697 1.23853 3.33333ZM5.51147 12.7879C3.9633 11.3939 3.15826 9.63636 3.15826 7.81818V5.21212H23.8417V7.75758C23.8417 9.57576 22.9748 11.3333 21.4885 12.7273L14.8005 18.9091C14.1812 19.5152 12.8188 19.5152 12.1376 18.9091L5.51147 12.7879ZM25.7615 36.6667V38.1212C25.7615 38.4849 25.4518 38.7879 25.0803 38.7879H1.91973C1.54817 38.7879 1.23853 38.4849 1.23853 38.1212V36.6667C1.23853 36.303 1.54817 36 1.91973 36C9.90826 36 16.844 36 25.0803 36C25.4518 36 25.7615 36.303 25.7615 36.6667ZM21.4885 27.2121C23.0367 28.6061 23.8417 30.3636 23.8417 32.1818V34.7273H3.15826V32.1818C3.15826 30.3636 4.02523 28.6061 5.51147 27.2121L12.1995 21.0303C12.8188 20.4242 14.1812 20.4242 14.8624 21.0303L21.4885 27.2121Z" fill="#143AA2"/>
<path d="M15.0786 16.3538L20.3 11.3692C21.3929 10.3231 22 9.09231 22 7.61538C22 7.24615 21.7571 7 21.3929 7H5.60714C5.24286 7 5 7.24615 5 7.61538C5 9.09231 5.66786 10.3846 6.7 11.3692L11.9214 16.3538C12.8321 17.2154 14.1679 17.2154 15.0786 16.3538ZM7.55 10.4462C6.82143 9.76923 6.39643 8.96923 6.275 8.16923H20.7857C20.6643 8.96923 20.1786 9.76923 19.5107 10.4462L14.2893 15.4308C13.8643 15.8 13.1964 15.8 12.7714 15.4308L7.55 10.4462Z" fill="#143AA2"/>
<path d="M11.9214 23.5921L6.7 28.5727C5.60714 29.6795 5 30.9708 5 32.2621V32.3851C5 32.754 5.24286 33 5.60714 33H21.3929C21.7571 33 22 32.754 22 32.3851V32.2621C22 30.9708 21.3929 29.6795 20.3 28.6342L15.0786 23.6535C14.2286 22.7927 12.7714 22.7927 11.9214 23.5921ZM19.45 29.4951C20.1786 30.1715 20.6036 30.9708 20.725 31.7702H6.21429C6.33571 30.9708 6.82143 30.1715 7.48929 29.4951L12.7107 24.5144C13.1357 24.1455 13.8036 24.1455 14.2286 24.5144L19.45 29.4951Z" fill="#143AA2"/>
</svg>
