<svg width="40" height="40" viewBox="0 0 40 40" fill="none" xmlns="http://www.w3.org/2000/svg">
<path d="M12 15.5607C12 15.2243 11.7736 15 11.434 15H6.56604C6.22642 15 6 15.2243 6 15.5607V20.4393C6 20.7757 6.22642 21 6.56604 21H11.434C11.7736 21 12 20.7757 12 20.4393V15.5607ZM10.8679 19.9346H7.13208V16.1776H10.8679V19.9346Z" fill="#143AA2"/>
<path d="M20 15.5607C20 15.2243 19.7736 15 19.434 15H14.566C14.2264 15 14 15.2243 14 15.5607V20.4393C14 20.7757 14.2264 21 14.566 21H19.434C19.7736 21 20 20.7757 20 20.4393V15.5607ZM18.8679 19.9346H15.1321V16.1776H18.8679V19.9346Z" fill="#143AA2"/>
<path d="M21.566 15C21.2264 15 21 15.2243 21 15.5607V20.4393C21 20.7757 21.2264 21 21.566 21H26.434C26.7736 21 27 20.7757 27 20.4393V15.5607C27 15.2243 26.7736 15 26.434 15H21.566ZM25.8679 19.9346H22.1321V16.1776H25.8679V19.9346Z" fill="#143AA2"/>
<path d="M12 22.5607C12 22.2243 11.7736 22 11.434 22H6.56604C6.22642 22 6 22.2243 6 22.5607V27.4393C6 27.7757 6.22642 28 6.56604 28H11.434C11.7736 28 12 27.7757 12 27.4393V22.5607ZM10.8679 26.8785H7.13208V23.1215H10.8679V26.8785Z" fill="#143AA2"/>
<path d="M20 22.5607C20 22.2243 19.7736 22 19.434 22H14.566C14.2264 22 14 22.2243 14 22.5607V27.4393C14 27.7757 14.2264 28 14.566 28H19.434C19.7736 28 20 27.7757 20 27.4393V22.5607ZM18.8679 26.8785H15.1321V23.1215H18.8679V26.8785Z" fill="#143AA2"/>
<path d="M11.434 29H6.56604C6.22642 29 6 29.2243 6 29.5607V34.4393C6 34.7757 6.22642 35 6.56604 35H11.434C11.7736 35 12 34.7757 12 34.4393V29.5607C12 29.2804 11.717 29 11.434 29ZM10.8679 33.9346H7.13208V30.1776H10.8679V33.9346Z" fill="#143AA2"/>
<path d="M19.434 29H14.566C14.2264 29 14 29.2243 14 29.5607V34.4393C14 34.7757 14.2264 35 14.566 35H19.434C19.7736 35 20 34.7757 20 34.4393V29.5607C20 29.2804 19.717 29 19.434 29ZM18.8679 33.9346H15.1321V30.1776H18.8679V33.9346Z" fill="#143AA2"/>
<path d="M26.2877 36.7927H3.83825V13.3709H36.1775V20.9166C36.1775 21.2788 36.4202 21.5203 36.7843 21.5203C37.1483 21.5203 37.391 21.2788 37.391 20.9166V13.3709H39.3933C39.7573 13.3709 40 13.1295 40 12.7673C40 12.5258 39.8787 12.2844 39.636 12.224L20.3416 0.0905481C20.1596 -0.0301827 19.9169 -0.0301827 19.6742 0.0905481L0.258479 12.2844C0.0764572 12.4051 -0.044891 12.6465 0.0157831 12.888C0.0764572 13.1295 0.319154 13.3106 0.622524 13.3106H2.62477V37.3963C2.62477 37.7585 2.86746 38 3.23151 38H26.227C26.591 38 26.8337 37.7585 26.8337 37.3963C26.8944 37.0945 26.591 36.7927 26.2877 36.7927ZM20.0382 1.29786L37.3303 12.1636H2.74612L20.0382 1.29786Z" fill="#143AA2"/>
<path d="M20 3C17.8125 3 16 4.8125 16 7C16 9.1875 17.8125 11 20 11C22.1875 11 24 9.1875 24 7C24 4.8125 22.1875 3 20 3ZM20 9.8125C18.5 9.8125 17.25 8.5625 17.25 7.0625C17.25 5.5625 18.5 4.3125 20 4.3125C21.5 4.3125 22.75 5.5625 22.75 7.0625C22.75 8.5625 21.5 9.8125 20 9.8125Z" fill="#143AA2"/>
<path d="M39.5055 23.1114C37.6509 22.8087 36.0436 22.2639 34.4982 21.2954C34.56 21.1743 34.6218 21.0533 34.6218 20.9322V15.6053C34.6218 15.2421 34.3745 15 34.0036 15H28.6873C28.3164 15 28.0691 15.2421 28.0691 15.6053V20.9322C28.0691 21.1138 28.1927 21.2954 28.3164 21.4165C26.7709 22.2034 25.1636 22.6271 23.4327 23.1114C23.1855 23.1719 23 23.414 23 23.7167V26.0169C23 34.4915 30.8509 39.6368 31.16 39.8789C31.2836 39.9395 31.4073 40 31.4691 40C31.5309 40 31.7164 39.9395 31.7782 39.8789C32.1491 39.6368 40 34.4915 40 26.0169V23.7772C40 23.414 39.7527 23.1719 39.5055 23.1114ZM29.2436 20.3874V16.2712H33.3236V20.3874H33.0145C32.6436 20.1453 32.3345 19.8426 31.9636 19.54C31.6545 19.2978 31.2218 19.2978 30.9745 19.54C30.6655 19.8426 30.3564 20.1453 29.9855 20.3874H29.2436ZM38.7636 26.0169C38.7636 32.9177 32.9527 37.5182 31.4691 38.6077C29.9855 37.5182 24.1745 32.8571 24.1745 26.0169V24.201C26.6473 23.5351 29.2436 22.7482 31.4691 20.7506C33.6945 22.6271 36.1055 23.7772 38.7636 24.2615V26.0169Z" fill="#143AA2"/>
<path d="M27.62 24.042C27.2 24.1648 26.84 24.2876 26.42 24.4719C26.18 24.5333 26 24.7789 26 25.0246V25.6387C26 31.1658 29.78 35.5875 31.64 36.8772C31.76 36.9386 31.88 37 32 37C32.12 37 32.24 36.9386 32.36 36.8772C34.22 35.5875 38 31.1044 38 25.6387V25.1474C38 24.9017 37.82 24.6561 37.58 24.5947C37.34 24.5333 37.1 24.4104 36.86 24.349C35.42 23.8577 33.98 23.3664 32.48 22.1382C32.24 21.9539 31.94 21.9539 31.7 22.1382C30.44 23.0594 29.12 23.5507 27.62 24.042ZM36.38 25.4545C36.5 25.5159 36.56 25.5159 36.68 25.5773C36.68 30.2446 33.62 34.175 31.94 35.5875C30.26 34.175 27.2 30.2446 27.2 25.5773V25.4545C27.44 25.3316 27.74 25.2702 27.98 25.2088C29.42 24.7175 30.74 24.2262 32 23.3664C33.5 24.4719 35 25.0246 36.38 25.4545Z" fill="#143AA2"/>
<path d="M30.6166 31.688C30.7461 31.8752 30.8756 31.9376 31.0699 32C31.2641 32 31.4584 32 31.5879 31.8128L35.7968 28.0693C36.0558 27.8197 36.0558 27.4454 35.8615 27.1958C35.6025 26.9462 35.214 26.9462 34.955 27.1334L31.3289 30.3778L30.2281 28.5684C30.0338 28.2565 29.6453 28.1941 29.3215 28.3189C28.9978 28.506 28.933 28.8804 29.0625 29.1924L30.6166 31.688Z" fill="#143AA2"/>
</svg>
