<svg width="40" height="40" viewBox="0 0 40 40" fill="none" xmlns="http://www.w3.org/2000/svg">
<path d="M10.6019 21.6688H14.213V21.7305C14.213 23.5195 15.6574 25 17.4028 25C19.1481 25 20.5926 23.5195 20.5926 21.7305V21.6688H26.8519V21.7305C26.8519 23.5195 28.2963 25 30.0417 25C31.787 25 33.2315 23.5195 33.2315 21.7305V21.6688H35.3981C35.7593 21.6688 36 21.4221 36 21.0519C36 20.0032 36 13.711 36 12.724C36 12.2922 35.8796 11.8604 35.6389 11.4903L32.9907 7.11039C32.5694 6.43182 31.8472 6 31.0648 6H26.7917C26.5509 6 26.3102 6.18507 26.25 6.37013C26.1898 6.43182 26.1898 6.55519 26.1898 6.61688C26.1898 7.29545 26.1898 14.6981 26.1898 16.1786C17.463 16.1786 19.5093 16.1786 10.6019 16.1786C10.2407 16.1786 10 16.4253 10 16.7955V21.0519C10 21.4221 10.3009 21.6688 10.6019 21.6688ZM17.4028 23.8279C16.3194 23.8279 15.4167 22.9026 15.4167 21.7922C15.4167 20.6818 16.3194 19.7565 17.4028 19.7565C18.4861 19.7565 19.3889 20.6818 19.3889 21.7922C19.4491 22.9026 18.5463 23.8279 17.4028 23.8279ZM30.1019 23.8279C29.0185 23.8279 28.1157 22.9026 28.1157 21.7922C28.1157 20.6818 29.0185 19.7565 30.1019 19.7565C31.1852 19.7565 32.088 20.6818 32.088 21.7922C32.088 22.9026 31.1852 23.8279 30.1019 23.8279ZM31.9676 7.72727L34.5556 12.1071H27.3935V7.23377H31.0648C31.4259 7.23377 31.787 7.41883 31.9676 7.72727ZM27.3935 13.3409H34.7963V16.1786H27.3935V13.3409ZM11.2037 17.4123C19.75 17.4123 26.0093 17.4123 34.7361 17.4123V20.4351H32.9907C32.5093 19.263 31.3657 18.461 30.0417 18.461C28.7176 18.461 27.5741 19.263 27.0926 20.4351H20.3519C19.8704 19.263 18.7269 18.461 17.4028 18.461C16.0787 18.461 14.9352 19.263 14.4537 20.4351H11.2037V17.4123Z" fill="#143AA2"/>
<path d="M10 14.375C10 14.75 10.25 15 10.625 15H24.375C24.75 15 25 14.75 25 14.375C25 9.8125 25 3.8125 25 1.625C25 1.25 24.75 1 24.375 1C16.0625 1 33.125 1 10.625 1C10.25 1 10 1.25 10 1.625C10 3.8125 10 9.8125 10 14.375ZM11.25 13.75V5.0625H15V6.625C15 6.875 15.125 7.125 15.375 7.1875C15.625 7.3125 15.875 7.25 16.0625 7.0625L17.4375 5.5625L18.8125 7.0625C19 7.25 19.25 7.3125 19.5 7.1875C19.75 7.0625 19.875 6.875 19.875 6.625V5.0625H23.625V13.75H11.25ZM23.75 3.8125H20V2.25H23.75V3.8125ZM18.6875 2.25V5.0625L17.9375 4.25C17.8125 4.125 17.625 4.0625 17.5 4.0625C17.3125 4.0625 17.1875 4.125 17.0625 4.25L16.3125 5.0625V2.25H18.6875ZM15 2.25V3.8125H11.25V2.25H15Z" fill="#143AA2"/>
<path d="M7 4.5C7 3.09756 5.875 2 4.5 2C3.125 2 2 3.15854 2 4.5C2 5.84146 3.125 7 4.5 7C5.875 7 7 5.90244 7 4.5ZM3.1875 4.5C3.1875 3.76829 3.75 3.21951 4.4375 3.21951C5.125 3.21951 5.6875 3.82927 5.6875 4.5C5.6875 5.17073 5.125 5.78049 4.4375 5.78049C3.8125 5.78049 3.1875 5.23171 3.1875 4.5Z" fill="#143AA2"/>
<path d="M38 28.5C38 27.0976 36.875 26 35.5 26C34.125 26 33 27.1585 33 28.5C33 29.9024 34.125 31 35.5 31C36.8125 31 38 29.8415 38 28.5ZM34.1875 28.5C34.1875 27.7683 34.75 27.2195 35.4375 27.2195C36.125 27.2195 36.6875 27.8293 36.6875 28.5C36.6875 29.2317 36.125 29.7805 35.4375 29.7805C34.75 29.7805 34.1875 29.1707 34.1875 28.5Z" fill="#143AA2"/>
<path d="M37.2727 36.2538C38.4242 34.0181 40 30.6949 40 28.7613C40 26.2236 38 24.1692 35.5152 24.1692C33.0303 24.1692 31.0303 26.2236 31.0303 28.7613C31.0303 30.8157 32.5455 34.0786 33.697 36.2538C33.0303 36.4955 32.6061 36.9184 32.4242 37.3414H5.09091V15.7704C6.60606 15.5891 7.69697 14.8036 7.69697 13.7764C7.69697 13.0514 7.15152 12.4471 6.24242 12.0846C7.39394 9.84894 8.9697 6.52568 8.9697 4.59215C8.9697 2.05438 6.9697 0 4.48485 0C2 0.060423 0 2.1148 0 4.65257C0 6.70695 1.51515 9.96979 2.66667 12.145C1.75758 12.5076 1.21212 13.1118 1.21212 13.8369C1.21212 14.864 2.30303 15.6495 3.81818 15.8308V38.0665C3.81818 38.429 4.06061 38.6707 4.42424 38.6707H32.4242C32.8485 39.4562 34 40 35.4545 40C37.2727 40 38.6667 39.1541 38.6667 38.006C38.7273 37.2205 38.1818 36.6163 37.2727 36.2538ZM6.48485 13.7764C6.48485 14.0181 5.87879 14.5015 4.78788 14.5619C4.84849 14.5015 4.90909 14.4411 4.9697 14.3807C5.0303 14.3202 5.27273 13.8369 5.63636 13.1722C6.18182 13.3535 6.48485 13.6556 6.48485 13.7764ZM4.48485 1.26888C6.30303 1.26888 7.75758 2.77946 7.75758 4.65257C7.75758 6.5861 5.69697 10.6344 4.48485 12.8701C3.45455 10.997 1.21212 6.82779 1.21212 4.65257C1.21212 2.77946 2.66667 1.26888 4.48485 1.26888ZM2.48485 13.7764C2.48485 13.5952 2.78788 13.3535 3.27273 13.1722C3.63636 13.8369 3.93939 14.3202 3.93939 14.3807C4 14.4411 4.06061 14.5015 4.12121 14.5619C3.09091 14.5015 2.48485 14.0181 2.48485 13.7764ZM35.5152 25.4381C37.3333 25.4381 38.7879 26.9486 38.7879 28.8218C38.7879 30.7553 36.7273 34.8036 35.5152 37.0393C34.4848 35.2266 32.2424 30.997 32.2424 28.8218C32.2424 26.8882 33.697 25.4381 35.5152 25.4381ZM33.5152 37.9456C33.5152 37.7644 33.8182 37.5227 34.303 37.3414C34.6667 38.006 34.9697 38.4894 34.9697 38.5498C35.0303 38.6103 35.0909 38.6707 35.1515 38.7311C34.1212 38.6103 33.5152 38.1873 33.5152 37.9456ZM35.8788 38.7311C35.9394 38.6707 36 38.6103 36.0606 38.5498C36.1212 38.4894 36.3636 38.006 36.7273 37.3414C37.2727 37.5227 37.5152 37.7644 37.5152 37.9456C37.5152 38.1873 36.9091 38.6103 35.8788 38.7311Z" fill="#143AA2"/>
<path d="M8.59603 27C8.23841 27 8 27.2384 8 27.596V35.404C8 35.7616 8.23841 36 8.59603 36H16.404C16.7616 36 17 35.7616 17 35.404V27.596C17 27.2384 16.7616 27 16.404 27H8.59603ZM15.8079 34.7483H9.19205V28.1921H15.8079V34.7483Z" fill="#143AA2"/>
<path d="M18.596 27C18.2384 27 18 27.2384 18 27.596V35.404C18 35.7616 18.2384 36 18.596 36H26.404C26.7616 36 27 35.7616 27 35.404V27.596C27 27.2384 26.7616 27 26.404 27H18.596ZM25.8079 34.7483H19.1921V28.1921H25.8079V34.7483Z" fill="#143AA2"/>
</svg>
