<svg width="73" height="40" viewBox="0 0 73 40" fill="none" xmlns="http://www.w3.org/2000/svg">
<path d="M66.6802 23.5813H72.8786V21.3308H66.2255V23.0854C66.2255 23.3593 66.4291 23.5813 66.6802 23.5813Z" fill="#143AA2"/>
<path d="M41.3866 22.4667H0V31.6808C0 33.8444 1.76994 35.5985 3.95321 35.5985H5.74685C5.64917 35.0787 5.58821 34.5466 5.58821 34.0025C5.58821 33.7243 5.60045 33.4462 5.62485 33.1802C6.05182 29.1657 9.48038 26.0339 13.6289 26.0339C17.7894 26.0339 21.218 29.1657 21.645 33.1802C21.6694 33.4462 21.6816 33.7243 21.6816 34.0025C21.6816 34.5466 21.6207 35.0787 21.523 35.5985H49.8176C49.72 35.0787 49.6591 34.5466 49.6591 34.0025C49.6591 33.7243 49.6712 33.4462 49.6957 33.1802C50.1227 29.1657 53.539 26.0339 57.6996 26.0339C61.8602 26.0339 65.2888 29.1657 65.7159 33.1802C65.7402 33.4462 65.7525 33.7243 65.7525 34.0025C65.7525 34.5466 65.6914 35.0787 65.5938 35.5985H69.059C71.2308 35.5985 73 33.8453 73 31.6808V25.4051H66.7285C65.4597 25.4051 64.4224 24.4377 64.4224 23.2407V20.8585C64.4224 20.1814 64.9716 19.6493 65.6426 19.6493H72.878C72.4997 18.1137 71.1942 16.9287 69.5592 16.7231L61.2136 15.6711C61.1611 15.6292 61.1035 15.5832 61.0509 15.5413L56.4185 2.636C55.8694 1.06401 54.3687 0 52.6849 0H3.96545C1.78444 0 0 1.76838 0 3.92985V20.0483H41.3866C42.0577 20.0483 42.6067 20.5925 42.6067 21.2576C42.6067 21.9226 42.0577 22.4667 41.3866 22.4667ZM46.8893 6.27559C46.8893 5.62785 47.4192 5.10272 48.0728 5.10272H53.8316C54.3699 5.10272 54.8501 5.43857 55.0304 5.94121L58.6478 16.0232C58.7745 16.3763 58.5102 16.7473 58.1322 16.7473H48.0851C47.4275 16.7473 46.8893 16.2139 46.8893 15.5622V6.27559ZM45.3032 20.0483H46.8893C47.5605 20.0483 48.1094 20.5925 48.1094 21.2576C48.1094 21.9226 47.5605 22.4667 46.8893 22.4667H45.3032C44.6321 22.4667 44.0831 21.9226 44.0831 21.2576C44.0831 20.5925 44.6321 20.0483 45.3032 20.0483ZM15.3125 15.9734C15.3125 16.4008 14.963 16.7473 14.5317 16.7473H6.36911C5.93785 16.7473 5.58821 16.4008 5.58821 15.9734V5.87662C5.58821 5.44915 5.93785 5.10272 6.36911 5.10272H14.5317C14.963 5.10272 15.3125 5.44915 15.3125 5.87655V15.9734ZM29.1488 15.9734C29.1488 16.4008 28.7991 16.7473 28.3679 16.7473H20.193C19.7661 16.7473 19.4122 16.4086 19.4122 15.9734V5.87662C19.4122 5.44135 19.7661 5.10272 20.193 5.10272H28.3679C28.7991 5.10272 29.1488 5.44915 29.1488 5.87662V15.9734ZM42.1919 16.7473H34.0293C33.598 16.7473 33.2484 16.4008 33.2484 15.9734V5.87662C33.2484 5.44915 33.598 5.10272 34.0293 5.10272H42.1919C42.6189 5.10272 42.9727 5.44135 42.9727 5.87662V15.9734C42.9727 16.4086 42.6189 16.7473 42.1919 16.7473Z" fill="#143AA2"/>
<path d="M65.5331 35.8041C65.5576 35.7436 65.582 35.671 65.5943 35.5984H65.582C65.5698 35.671 65.5576 35.7315 65.5331 35.8041Z" fill="#143AA2"/>
<path d="M63.5093 32.3296C62.959 30.3348 61.3186 28.7284 59.2985 28.2099C54.7039 27.0309 50.6548 31.1248 51.9012 35.6728C52.447 37.6643 54.0786 39.2718 56.0934 39.7926C60.6868 40.9799 64.7651 36.8816 63.5093 32.3296ZM60.1277 34.6654C59.9021 35.5357 59.1699 36.2422 58.2856 36.4399C56.4073 36.8595 54.8083 35.1988 55.2833 33.3411C55.5049 32.4745 56.2281 31.7667 57.1073 31.5669C58.9844 31.1404 60.6102 32.8042 60.1277 34.6654Z" fill="#143AA2"/>
<path d="M11.4572 39.1173C11.7867 39.2624 12.1405 39.3712 12.5065 39.4438C12.6896 39.48 12.8726 39.5042 13.0556 39.5284C13.2386 39.5526 13.4339 39.5647 13.6291 39.5647C13.9951 39.5647 14.3612 39.5284 14.7028 39.4558C14.7149 39.4438 14.7394 39.4438 14.7516 39.4438C15.02 39.3953 15.2885 39.3107 15.5446 39.2261C15.8009 39.1294 16.0449 39.0084 16.289 38.8875C16.4476 38.8028 16.6062 38.7061 16.7526 38.6095C17.0576 38.4159 17.3383 38.1862 17.5823 37.9202C17.8384 37.6662 18.0703 37.3881 18.2778 37.098C18.3753 36.9529 18.4729 36.7957 18.5584 36.6384C18.6438 36.4812 18.717 36.3241 18.7902 36.1547C18.8634 35.9854 18.9244 35.8162 18.9732 35.6469C19.0342 35.4776 19.083 35.2962 19.1197 35.1149C19.144 34.9577 19.1685 34.8004 19.1929 34.6432C19.1929 34.607 19.205 34.5586 19.205 34.5224C19.2172 34.4981 19.2172 34.4619 19.2172 34.4377C19.2294 34.3773 19.2294 34.3167 19.2294 34.2563C19.2417 34.2201 19.2417 34.1838 19.2417 34.1475V34.0024C19.2417 33.0471 18.9976 32.1523 18.5584 31.3663C18.4729 31.2091 18.3753 31.052 18.2778 30.9069C18.0703 30.6166 17.8384 30.3385 17.5823 30.0846C16.5696 29.0689 15.1664 28.4521 13.6291 28.4521C11.8965 28.4521 10.347 29.2382 9.30984 30.4836C9.11463 30.7255 8.93159 30.9794 8.77294 31.2454C8.29709 32.0676 8.02869 33.0109 8.02869 34.0024V34.1475C8.02869 34.1838 8.02869 34.2201 8.04093 34.2563C8.04093 34.3167 8.04093 34.3773 8.05317 34.4377C8.05317 34.4619 8.05317 34.4981 8.06533 34.5224C8.06533 34.5586 8.07749 34.607 8.07749 34.6432C8.10189 34.8004 8.12637 34.9577 8.15069 35.1149C8.18733 35.2962 8.23613 35.4776 8.29709 35.6469C8.34597 35.8162 8.40693 35.9854 8.48014 36.1547C8.55334 36.3241 8.62654 36.4812 8.71198 36.6384C8.79742 36.7957 8.89503 36.9529 8.99255 37.098C9.09023 37.2431 9.20007 37.3881 9.30984 37.5211C9.43192 37.6662 9.55384 37.7992 9.67584 37.9202C9.79793 38.0411 9.93209 38.1621 10.0785 38.283C10.2127 38.3918 10.347 38.5006 10.4934 38.5973C10.5056 38.5973 10.5056 38.6095 10.5177 38.6095C10.652 38.7061 10.7862 38.7908 10.9326 38.8633C11.1035 38.9601 11.2742 39.0447 11.4572 39.1173ZM11.3816 33.4188C11.5859 32.5754 12.3078 31.896 13.1681 31.7358C14.8117 31.4299 16.2076 32.8 15.9222 34.4255C15.7645 35.3233 15.0278 36.0754 14.1274 36.2606C12.4311 36.6094 10.9679 35.1275 11.3816 33.4188Z" fill="#143AA2"/>
</svg>
