<svg width="155" height="60" viewBox="0 0 155 60" fill="none" xmlns="http://www.w3.org/2000/svg">
<path d="M51 20.3912L51.9965 37.4973C51.9965 38.4909 52.7055 39.3136 53.6384 39.4815C53.6261 39.5689 53.618 39.6563 53.618 39.7462V58.1187C53.618 59.1573 54.4498 59.9994 55.4765 59.9994C55.5413 59.9994 55.6049 59.9969 55.6672 59.99H59.6828C60.7095 59.99 61.5419 60.1573 61.5419 59.118C61.5419 58.08 60.7095 57.2374 59.6828 57.2374L57.3344 56.6744V39.7455C57.3344 39.6432 57.3245 39.5421 57.3085 39.4447C58.1593 39.2156 58.7875 38.4317 58.7875 37.4979L58.6746 29.5397L63.3387 34.9769C63.9649 35.7071 65.0589 35.7864 65.7802 35.1522C66.5028 34.5175 66.5811 33.4114 65.9536 32.6805L58.5993 24.1031L58.5653 21.6807L52.993 18.3745C51.8928 18.3745 51 19.277 51 20.3912Z" fill="#143AA2"/>
<path d="M55.4771 17.7765C57.5997 17.7765 59.3205 16.0358 59.3205 13.8885C59.3205 11.7412 57.5997 10.0005 55.4771 10.0005C53.3544 10.0005 51.6336 11.7412 51.6336 13.8885C51.6336 16.0358 53.3544 17.7765 55.4771 17.7765Z" fill="#143AA2"/>
<path d="M102.006 18.3746L96.4359 21.6809L96.4007 24.1033L89.0451 32.6807C88.4195 33.4122 88.4966 34.5183 89.2198 35.1524C89.9405 35.7866 91.0332 35.7073 91.6607 34.977L96.3254 29.5399L96.2119 37.4981C96.2119 38.4318 96.84 39.2164 97.6915 39.4449C97.6749 39.5435 97.665 39.644 97.665 39.7463V56.6733L95.3172 57.2357C94.2905 57.2357 93.4563 58.079 93.4563 59.117C93.4563 60.1562 94.2905 59.9883 95.3172 59.9883H99.3316C99.3951 59.9958 99.4593 59.9983 99.5247 59.9983C100.55 59.9983 101.381 59.1569 101.381 58.1183V39.7457C101.381 39.6565 101.373 39.5691 101.361 39.4811C102.296 39.3138 103.003 38.4905 103.003 37.4962L104 20.3907C104.001 19.2772 103.109 18.3746 102.006 18.3746Z" fill="#143AA2"/>
<path d="M99.5241 17.776C101.647 17.776 103.368 16.0352 103.368 13.888C103.368 11.7407 101.647 10 99.5241 10C97.4014 10 95.6806 11.7407 95.6806 13.888C95.6806 16.0352 97.4014 17.776 99.5241 17.776Z" fill="#143AA2"/>
<path d="M79.5342 28.4575H78.067L80.0297 30.4424V28.9569C80.0291 28.681 79.8082 28.4575 79.5342 28.4575Z" fill="#143AA2"/>
<path d="M70.6479 28.4575C70.3752 28.4575 70.1543 28.681 70.1543 28.9569V37.9481C70.1543 38.2227 70.3746 38.4468 70.6479 38.4468H79.5343C79.8083 38.4468 80.0298 38.2233 80.0298 37.9481V31.2501L77.2686 28.4581L70.6479 28.4575ZM76.5868 37.905H76.1296V37.4431H76.5868V37.905ZM78.1935 37.4425H78.6507V37.9044H78.1935V37.4425ZM77.6635 37.905H77.2063V37.4431H77.6635V37.905Z" fill="#143AA2"/>
<path d="M91.4485 26.032H89.98L91.9427 28.0169V26.5313C91.9421 26.2554 91.7225 26.032 91.4485 26.032Z" fill="#143AA2"/>
<path d="M82.5627 26.032C82.2881 26.032 82.0684 26.2554 82.0684 26.5313V35.5225C82.0684 35.7966 82.2875 36.0213 82.5627 36.0213H91.4478C91.7212 36.0213 91.9421 35.7972 91.9421 35.5225V28.8239L89.1809 26.032H82.5627ZM88.5015 35.4795H88.0449V35.017H88.5015V35.4795ZM90.1083 35.017H90.5655V35.4795H90.1083V35.017ZM89.5764 35.4795H89.1198V35.017H89.5764V35.4795Z" fill="#143AA2"/>
<path d="M79.5342 39.9265H78.067L80.0297 41.9108V40.4252C80.0291 40.15 79.8082 39.9265 79.5342 39.9265Z" fill="#143AA2"/>
<path d="M70.6479 39.9265C70.3752 39.9265 70.1543 40.15 70.1543 40.4252V49.4165C70.1543 49.6905 70.3746 49.917 70.6479 49.917H79.5343C79.8083 49.917 80.0298 49.6911 80.0298 49.4165V42.7191L77.2686 39.9265H70.6479ZM76.5868 49.3753H76.1296V48.9127H76.5868V49.3753ZM78.1935 48.9127H78.6507V49.3746H78.1935V48.9127ZM77.6635 49.3753H77.2063V48.9127H77.6635V49.3753Z" fill="#143AA2"/>
<path d="M90.871 39.9265H89.4031L91.3653 41.9108V40.4252C91.3647 40.15 91.145 39.9265 90.871 39.9265Z" fill="#143AA2"/>
<path d="M81.9858 39.9265C81.7112 39.9265 81.491 40.15 81.491 40.4252V49.4165C81.491 49.6905 81.71 49.917 81.9858 49.917H90.8704C91.1443 49.917 91.3646 49.6911 91.3646 49.4165V42.7191L88.6047 39.9265H81.9858ZM87.9241 49.3753H87.4675V48.9127H87.9241V49.3753ZM89.5308 48.9127H89.988V49.3746H89.5308V48.9127ZM88.9989 49.3753H88.5423V48.9127H88.9989V49.3753Z" fill="#143AA2"/>
<path d="M69.1381 50.6036V33.7921V32.4077H63.9909V33.7921H67.7702V50.6036V51.988H93.5797V50.6036H69.1381Z" fill="#143AA2"/>
<path d="M73.2425 53.0774C71.3525 53.0774 69.8204 54.6266 69.8204 56.5372C69.8204 58.4497 71.3525 59.9982 73.2425 59.9982C75.1318 59.9982 76.6639 58.4503 76.6639 56.5372C76.6639 54.6272 75.1318 53.0774 73.2425 53.0774ZM73.2425 57.627C72.6483 57.627 72.167 57.1401 72.167 56.5372C72.167 55.9374 72.6483 55.4505 73.2425 55.4505C73.836 55.4505 74.3173 55.9374 74.3173 56.5372C74.3173 57.1401 73.836 57.627 73.2425 57.627Z" fill="#143AA2"/>
<path d="M87.0509 53.0774C85.1597 53.0774 83.6301 54.6266 83.6301 56.5372C83.6301 58.4497 85.1603 59.9982 87.0509 59.9982C88.9414 59.9982 90.4723 58.4503 90.4723 56.5372C90.4723 54.6272 88.939 53.0774 87.0509 53.0774ZM87.0509 57.627C86.4585 57.627 85.9754 57.1401 85.9754 56.5372C85.9754 55.9374 86.4585 55.4505 87.0509 55.4505C87.6457 55.4505 88.1263 55.9374 88.1263 56.5372C88.1251 57.1401 87.6457 57.627 87.0509 57.627Z" fill="#143AA2"/>
</svg>
