<svg width="155" height="60" viewBox="0 0 155 60" fill="none" xmlns="http://www.w3.org/2000/svg">
<path d="M76.1186 0V11.3376H77.5C79.787 11.3376 81.0302 12.828 81.153 14.344C81.2144 15.1083 80.9688 15.8089 80.4316 16.3057C79.8944 16.8153 79.0349 17.1975 77.5 17.1975C76.7326 17.1975 75.7963 16.8408 75.1056 16.2548C74.3995 15.6815 73.9698 14.9045 73.9698 14.2675H71.207C71.207 15.6688 72.0051 16.9299 73.1409 17.8853C74.2921 18.828 75.8116 19.4904 77.5 19.4904C79.6488 19.4904 81.3986 18.8535 82.4884 17.8344C83.5935 16.8025 84.0233 15.465 83.9158 14.1911C83.7316 11.9618 81.8591 9.70955 78.8814 9.16943V0H76.1186ZM68.7665 17.8981L47.622 29.4268H52.641L70.2707 19.8089L68.7665 17.8981ZM86.2335 17.8981L84.7293 19.8089L102.365 29.4268H107.369L86.2335 17.8981ZM44.5 31.7197V60H110.5V31.7197H44.5ZM50.3326 34.6497H53.0953V57.0701H50.3326V34.6497ZM57.7 34.6497H60.4628V57.0701H57.7V34.6497ZM65.0674 34.6497H67.8302V57.0701H65.0674V34.6497ZM72.4349 34.6497H75.1977V57.0701H72.4349V34.6497ZM79.8023 34.6497H82.5651V57.0701H79.8023V34.6497ZM87.1698 34.6497H89.9326V57.0701H87.1698V34.6497ZM94.5372 34.6497H97.3V57.0701H94.5372V34.6497ZM101.905 34.6497H104.667V57.0701H101.905V34.6497Z" fill="#143AA2"/>
</svg>
