<svg width="129" height="40" viewBox="0 0 129 40" fill="none" xmlns="http://www.w3.org/2000/svg">
<path d="M27.2878 29.747C24.7723 29.747 22.6739 31.5263 22.2095 33.8904C21.7451 31.5263 19.6467 29.747 17.1197 29.747C14.2559 29.747 11.9382 32.0374 11.9382 34.8742C11.9382 37.6983 14.2559 39.9943 17.1197 39.9943C19.6481 39.9943 21.7451 38.2107 22.2095 35.8552C22.6753 38.2107 24.7723 39.9943 27.2878 39.9943C30.1602 39.9943 32.4822 37.6983 32.4822 34.8742C32.4822 32.0374 30.1602 29.747 27.2878 29.747ZM17.1183 37.3288C15.7523 37.3288 14.6372 36.2289 14.6372 34.8742C14.6372 33.5167 15.7538 32.4111 17.1183 32.4111C18.4929 32.4111 19.6094 33.5167 19.6094 34.8742C19.6094 36.2289 18.4929 37.3288 17.1183 37.3288ZM27.2878 37.3288C25.9247 37.3288 24.8067 36.2289 24.8067 34.8742C24.8067 33.5167 25.9261 32.4111 27.2878 32.4111C28.6652 32.4111 29.7818 33.5167 29.7818 34.8742C29.7818 36.2289 28.6652 37.3288 27.2878 37.3288ZM0.114667 20.7963V0H103.918V1.70294L106.263 2.31447C106.941 2.49 107.411 3.09304 107.411 3.78809V7.22936H103.918V20.7977C103.918 22.2345 102.737 23.4023 101.284 23.4023H2.75773C1.29717 23.4009 0.114667 22.2331 0.114667 20.7963ZM114.062 29.7526C111.201 29.7526 108.883 32.043 108.883 34.8784C108.883 37.7054 111.201 40 114.062 40C116.934 40 119.252 37.7054 119.252 34.8784C119.252 32.043 116.934 29.7526 114.062 29.7526ZM114.062 37.3359C112.699 37.3359 111.581 36.2346 111.581 34.8784C111.581 33.5181 112.699 32.4167 114.062 32.4167C115.442 32.4167 116.554 33.5181 116.554 34.8784C116.554 36.2346 115.442 37.3359 114.062 37.3359ZM89.9732 29.747C87.4534 29.747 85.3579 31.5263 84.8935 33.8904C84.4291 31.5263 82.3292 29.747 79.8023 29.747C76.937 29.747 74.6193 32.0374 74.6193 34.8742C74.6193 37.6983 76.937 39.9943 79.8023 39.9943C82.3292 39.9943 84.4291 38.2107 84.8935 35.8552C85.3579 38.2107 87.4534 39.9943 89.9732 39.9943C92.8456 39.9943 95.1633 37.6983 95.1633 34.8742C95.1647 32.0374 92.8456 29.747 89.9732 29.747ZM79.8037 37.3288C78.4363 37.3288 77.3226 36.2289 77.3226 34.8742C77.3226 33.5167 78.4363 32.4111 79.8037 32.4111C81.1783 32.4111 82.2977 33.5167 82.2977 34.8742C82.2977 36.2289 81.1783 37.3288 79.8037 37.3288ZM89.9732 37.3288C88.6101 37.3288 87.4921 36.2289 87.4921 34.8742C87.4921 33.5167 88.6101 32.4111 89.9732 32.4111C91.3478 32.4111 92.4658 33.5167 92.4658 34.8742C92.4672 36.2289 91.3478 37.3288 89.9732 37.3288ZM128.421 31.2291L129 32.2101C129 33.9215 127.592 35.3088 125.861 35.3088H122.12C121.667 34.9846 121.369 34.492 121.303 33.9456C121.054 32.0416 120.055 30.3925 118.608 29.26C117.93 28.7263 117.093 28.439 116.228 28.439H84.5667H82.3407H76.5185C74.9834 29.2048 73.7608 30.4845 73.0871 32.0614H34.0202C33.3451 30.4817 32.111 29.2006 30.5744 28.439H13.9019C12.3439 29.1977 11.084 30.4689 10.4046 32.0614H7.40603V28.439H0V26.1684C0 25.6828 0.3956 25.2921 0.887233 25.2921H110.215L108.869 21.303C108.665 20.7028 108.565 20.0772 108.565 19.4458V9.78306C108.565 9.78306 109.842 9.09792 110.947 9.09226C112.74 9.09226 116.794 9.09226 117.159 9.09792C123.182 9.24797 125.136 10.1313 125.348 11.2822C125.348 11.2822 125.736 12.5066 126.244 14.1629C126.055 14.0312 125.851 13.8996 125.61 13.8628L117.472 12.5265L118.132 15.7738C118.396 17.0733 119.45 18.0741 120.773 18.2879L124.479 18.8951C124.892 18.9588 125.249 19.2009 125.452 19.5562L125.51 19.6383C125.751 20.0531 126.196 20.3093 126.684 20.3192L128.097 20.339C128.28 20.9619 128.444 21.5352 128.561 22.0066C128.801 22.8347 128.897 23.6826 128.851 24.5461L128.725 26.5067C127.776 26.3623 126.732 26.2561 126.214 26.3991C125.824 26.5053 125.483 26.7233 125.483 27.1211V27.5995C125.483 29.1821 126.882 30.04 126.882 30.04C126.882 30.04 127.451 27.3348 127.451 27.3079L128.673 27.3136L128.421 31.2291ZM96.1423 30.0641H107.418V32.8117C107.418 33.7771 106.624 34.5599 105.645 34.5599H97.911C96.9363 34.5599 96.1437 33.7757 96.1437 32.8117V30.0641H96.1423Z" fill="#143AA2"/>
</svg>
