<svg width="71" height="50" viewBox="0 0 71 50" fill="none" xmlns="http://www.w3.org/2000/svg">
<path d="M17.295 34.4006C15.5591 34.4022 13.8744 34.9942 12.5122 36.0813C11.15 37.1684 10.1898 38.6873 9.78634 40.3931C9.64532 40.9856 9.57516 41.5931 9.57738 42.2025C9.57634 42.8342 9.65225 43.4636 9.80338 44.0765C10.2183 45.7676 11.1817 47.2696 12.5398 48.3432C13.8979 49.4168 15.5727 50 17.2971 50C19.0215 50 20.6963 49.4168 22.0544 48.3432C23.4126 47.2696 24.3759 45.7676 24.7909 44.0765C25.0878 42.8675 25.0922 41.6041 24.8036 40.3931C24.4001 38.6873 23.4399 37.1685 22.0778 36.0814C20.7156 34.9942 19.0308 34.4022 17.295 34.4006ZM20.3863 43.8697C20.0866 44.4347 19.6408 44.907 19.0964 45.2363C18.552 45.5655 17.9294 45.7394 17.295 45.7394C16.6605 45.7394 16.0379 45.5655 15.4935 45.2363C14.9492 44.907 14.5034 44.4347 14.2037 43.8697C13.9282 43.3582 13.7845 42.7848 13.7858 42.2025C13.7884 41.2639 14.1593 40.3647 14.8171 39.7019C15.4749 39.0392 16.366 38.667 17.295 38.667C18.2239 38.667 19.115 39.0392 19.7728 39.7019C20.4306 40.3647 20.8015 41.2639 20.8041 42.2025C20.8054 42.7848 20.6617 43.3582 20.3863 43.8697Z" fill="#143AA2"/>
<path d="M53.6954 34.4006C51.9594 34.4015 50.2743 34.9933 48.912 36.0805C47.5497 37.1678 46.5896 38.687 46.1867 40.3931C46.0457 40.9856 45.9755 41.5931 45.9778 42.2025C45.9767 42.8342 46.0526 43.4636 46.2038 44.0765C46.6177 45.7667 47.5798 47.2682 48.9365 48.3417C50.2933 49.4153 51.9666 49.999 53.6899 50C55.4132 50.001 57.0872 49.4192 58.4452 48.3472C59.8031 47.2752 60.7668 45.7748 61.1827 44.0851C61.4865 42.879 61.4953 41.6163 61.2083 40.406C60.8064 38.6975 59.8465 37.1756 58.4833 36.086C57.1202 34.9964 55.4335 34.4027 53.6954 34.4006ZM56.7824 43.8783V43.8826C56.4099 44.5802 55.8165 45.1314 55.0973 45.4481C54.3781 45.7648 53.5746 45.8287 52.8152 45.6295C52.0558 45.4303 51.3845 44.9797 50.9085 44.3495C50.4326 43.7194 50.1795 42.9462 50.1898 42.1536C50.2001 41.361 50.4732 40.5948 50.9653 39.9775C51.4575 39.3602 52.1403 38.9274 52.9046 38.7485C53.6689 38.5695 54.4705 38.6546 55.1812 38.9903C55.8919 39.3259 56.4707 39.8927 56.825 40.5999C57.0788 41.1097 57.2074 41.6738 57.2 42.2444C57.1926 42.815 57.0493 43.3754 56.7824 43.8783Z" fill="#143AA2"/>
<path d="M12.5902 13.4971L12.7275 13.5467L12.0508 26.0528V26.1419C12.0612 26.8622 12.3504 27.5496 12.8564 28.0572C13.3624 28.5647 14.0449 28.8518 14.7578 28.8572C15.1252 28.8587 15.4889 28.7839 15.8264 28.6373C16.1639 28.4906 16.4679 28.2754 16.7195 28.0049C16.9765 27.7375 17.1748 27.4184 17.3015 27.0684C17.4283 26.7184 17.4806 26.3453 17.4551 25.9735L16.798 13.5467L16.9255 13.4971C17.7893 13.1686 18.5336 12.582 19.0592 11.8154C19.5849 11.0489 19.8669 10.1387 19.8679 9.20619V2.28914C19.8682 1.68366 19.6309 1.10274 19.2081 0.673666C18.7853 0.244591 18.2113 0.00234527 17.6121 0H17.4158V10.2566H15.9838V1.24865C15.9849 1.08527 15.954 0.923287 15.8929 0.772024C15.8318 0.62076 15.7416 0.483206 15.6277 0.367284C15.5137 0.251362 15.3782 0.159363 15.2289 0.0965819C15.0796 0.0338012 14.9195 0.00147981 14.7578 0.00147981C14.5961 0.00147981 14.436 0.0338012 14.2867 0.0965819C14.1374 0.159363 14.0019 0.251362 13.8879 0.367284C13.7739 0.483206 13.6838 0.62076 13.6227 0.772024C13.5616 0.923287 13.5307 1.08527 13.5318 1.24865V10.2566H12.0999V0H11.9135C11.3127 0.000260801 10.7366 0.241522 10.3117 0.670763C9.88687 1.1 9.64809 1.68211 9.64783 2.28914V9.20619C9.64876 10.1387 9.93083 11.0489 10.4565 11.8154C10.9821 12.582 11.7264 13.1686 12.5902 13.4971Z" fill="#143AA2"/>
<path d="M29.9998 28.8572C30.3675 28.8573 30.7313 28.7815 31.069 28.6346C31.4066 28.4877 31.7111 28.2726 31.9636 28.0027C32.2161 27.7327 32.4114 27.4134 32.5376 27.0645C32.6637 26.7156 32.718 26.3443 32.6971 25.9735L32.0595 14.0323H32.5303V4.09274C32.5305 3.00891 32.1052 1.96927 31.3476 1.20197C30.59 0.434665 29.562 0.00238537 28.4893 1.27445e-09C28.3541 -6.76166e-06 28.2201 0.0269025 28.0952 0.0791908C27.9702 0.131479 27.8567 0.208123 27.7611 0.304745C27.6655 0.401367 27.5896 0.516074 27.5378 0.642318C27.4861 0.768562 27.4595 0.90387 27.4595 1.04051V14.0323H27.9302L27.2928 25.9735V26.1716C27.3078 26.8877 27.5993 27.5695 28.1051 28.0713C28.611 28.5731 29.2909 28.8551 29.9998 28.8572Z" fill="#143AA2"/>
<path d="M70.9976 28.5159C71.0274 27.1873 70.7861 25.8666 70.2887 24.6363C69.7913 23.4059 69.0485 22.2923 68.1066 21.3646C63.361 16.5784 58.7219 11.706 54.0316 6.88098C53.4433 6.22492 52.7234 5.70307 51.9198 5.35022C51.1162 4.99737 50.2474 4.82161 49.3712 4.83466C48.2158 4.8562 42.3487 4.84328 42.3487 4.84328V32.6301H23.4811C25.9045 34.2305 27.6241 36.7131 28.2822 39.5617C28.4478 40.2541 28.5463 40.961 28.5764 41.6727H42.4169C42.4473 40.9514 42.5516 40.2354 42.7281 39.5359C43.3167 37.038 44.7228 34.8141 46.7187 33.2244C48.7145 31.6348 51.1831 30.7727 53.7245 30.7777C56.2658 30.7827 58.7311 31.6545 60.7208 33.2519C62.7105 34.8494 64.108 37.0788 64.687 39.579C64.8495 40.2439 64.9452 40.9237 64.9727 41.608C65.834 41.608 66.6996 41.608 67.5651 41.5995C70.3366 41.5908 71.1084 40.6215 70.9719 37.58C70.8526 34.5601 70.9805 31.5402 70.9976 28.5159ZM45.8322 22.1745V8.96177L49.448 8.95314H49.5375C49.8427 8.96562 50.1416 9.04442 50.4138 9.18419C50.6861 9.32396 50.9253 9.5214 51.1152 9.76305C52.6501 11.3355 54.1852 12.9165 55.7031 14.5148C58.1335 17.035 60.6364 19.6112 63.1478 22.1745L45.8322 22.1745Z" fill="#143AA2"/>
<path d="M4.78669e-06 32.63V38.8938C-0.00135164 39.6282 0.285623 40.3332 0.797987 40.8541C1.31035 41.375 2.00628 41.6693 2.73313 41.6725H6.01204C6.04453 40.9515 6.14882 40.2356 6.32334 39.5357C6.98341 36.6984 8.69773 34.226 11.1116 32.63H4.78669e-06Z" fill="#143AA2"/>
</svg>
