<svg width="66" height="60" viewBox="0 0 66 60" fill="none" xmlns="http://www.w3.org/2000/svg">
<path fill-rule="evenodd" clip-rule="evenodd" d="M54.7178 36.2911H52.1483L46 33.5L40.5 30L36.5 27.1145C36.5 27.1145 36.6358 27.0274 36.6672 26.9377L36.2722 27.1145C36.1538 27.167 36.0131 27.167 35.902 27.1071L32.2589 25.3271C32.2144 25.3047 32.1699 25.2897 32.1181 25.2822L27.342 24.7064C27.1791 24.6839 27.0458 24.5792 26.9866 24.4297L26.3127 22.7618C26.2683 22.6571 26.1942 22.5749 26.0906 22.53L21.9661 20.5256C21.8254 20.4584 21.7291 20.3237 21.7143 20.1667L21.6329 19.2693V19.2168L21.6847 17.3097C21.6847 17.22 21.6625 17.1378 21.618 17.0629L19.8631 14.2284C19.7372 14.0265 19.4706 13.9592 19.2633 14.0789L16.405 15.7915L16.3161 15.8588L15.6793 16.502C15.5831 16.5993 15.4424 16.6442 15.3017 16.6292L13.8503 16.4273C13.6578 16.3973 13.4653 16.5095 13.3839 16.689L12.6952 18.2446C12.6211 18.4091 12.4582 18.5138 12.2805 18.5064L10.4071 18.4615C10.2072 18.4541 10.0294 18.5886 9.97019 18.7756L8.91875 22.2383C8.87424 22.3954 8.741 22.5151 8.58551 22.5449L3.59458 23.607C3.58714 23.6095 3.57971 23.6111 3.57228 23.6128C3.5575 23.6161 3.54273 23.6194 3.52792 23.6294L0.788137 24.6615C0.588232 24.7363 0.469736 24.9457 0.506732 25.1625L0.714054 26.3218C0.721472 26.3518 0.728889 26.3816 0.736306 26.4041L2.55047 31.0559C2.55047 31.0597 2.55232 31.0634 2.55417 31.0672C2.55603 31.0709 2.55788 31.0746 2.55788 31.0784C2.66154 31.3028 4.24622 34.758 4.22397 35.102C4.20172 35.3937 3.41684 37.4354 3.14285 38.1234C3.08361 38.2656 3.10586 38.4301 3.19468 38.5498L3.90557 39.5369C3.92782 39.5669 3.94998 39.5968 3.97965 39.6192L9.94794 44.6451C9.9693 44.6666 9.99447 44.6804 10.0207 44.6948C10.0309 44.7004 10.0413 44.706 10.0517 44.7123L19.2633 48.8332C19.3521 48.8706 19.4484 48.8781 19.5373 48.8631L25.0687 47.6441C25.1724 47.6216 25.2834 47.6366 25.3797 47.689L27.5345 48.8856C27.7197 48.9903 27.8085 49.2072 27.7419 49.4091L26.4312 53.7094C26.3794 53.8814 26.4312 54.0685 26.5719 54.1806L31.3184 58.2416C31.4443 58.3463 31.6146 58.3763 31.7701 58.3165L37.5978 55.9756C37.7236 55.9232 37.8718 55.9381 37.9902 56.0129L41.7889 58.3538C41.7964 58.3576 41.8019 58.3614 41.8075 58.3651C41.8109 58.3674 41.8143 58.3697 41.8181 58.372C41.8205 58.3734 41.8231 58.3749 41.8259 58.3763L43.5291 59.6626C43.5661 59.6925 43.6105 59.715 43.655 59.73L44.4029 59.9767C44.6694 60.0665 44.9508 59.887 44.9804 59.6028L45.0618 58.8175C45.0766 58.6754 45.1581 58.5408 45.2914 58.4735L54.8141 53.1635C54.8881 53.1186 54.9547 53.0588 54.9917 52.9765L58.3832 46.3652C58.4203 46.2978 58.4351 46.2231 58.4351 46.1483L58.2795 40.8682C58.2795 40.771 58.2425 40.6738 58.1758 40.599L56.1618 38.1384L54.7178 36.2911Z" fill="#143AA2"/>
<path d="M47.0954 37.3914L47.0953 37.3914L47.1027 37.3978C47.6758 37.8929 48.4077 38.1668 49.1667 38.1668C49.9129 38.1668 50.6329 37.902 51.2016 37.4225C51.7747 36.965 54.816 34.2535 57.7676 30.5431C60.7831 26.7526 64.0001 21.5611 64.0001 16.4667C64.0001 12.5021 62.4409 8.69684 59.6607 5.88893C56.8801 3.0805 53.1056 1.5 49.1667 1.5C45.2278 1.5 41.4532 3.0805 38.6726 5.88893C35.8925 8.69684 34.3333 12.5021 34.3333 16.4667C34.3333 21.5641 37.5746 26.7572 40.5985 30.5451C43.6713 34.3944 46.8015 37.1342 47.0927 37.389L47.0954 37.3914ZM49.1686 30.6139C47.584 29.0155 45.677 26.8784 44.0642 24.5744C42.0397 21.6824 40.6666 18.789 40.6666 16.4667C40.6666 14.181 41.5657 11.992 43.1615 10.3803C44.7567 8.76908 46.9171 7.86667 49.1667 7.86667C51.4162 7.86667 53.5766 8.76908 55.1718 10.3803C56.7676 11.992 57.6667 14.181 57.6667 16.4667C57.6667 18.7894 56.2932 21.6872 54.2688 24.5812C52.6568 26.8856 50.7513 29.0215 49.1686 30.6139ZM49.1667 8.23334C47.5481 8.23334 45.9671 8.71817 44.6238 9.62475C43.2806 10.5312 42.2359 11.818 41.6196 13.3208C41.0034 14.8234 40.8424 16.4759 41.1563 18.0701C41.4703 19.6644 42.2457 21.1308 43.3867 22.2832C44.5278 23.4358 45.9836 24.2224 47.5706 24.5413C49.1577 24.8601 50.8027 24.6963 52.2968 24.0713C53.7908 23.4463 55.0653 22.3889 55.9608 21.0351C56.8563 19.6816 57.3334 18.0918 57.3334 16.4667C57.3334 14.2878 56.4765 12.1953 54.9467 10.6501C53.4163 9.10444 51.3374 8.23334 49.1667 8.23334ZM49.1667 18.3333C48.8074 18.3333 48.455 18.2258 48.1538 18.0226C47.8525 17.8193 47.6155 17.5287 47.4749 17.1859C47.3342 16.8429 47.2972 16.4647 47.3691 16.0997C47.441 15.7348 47.618 15.4016 47.8755 15.1415C48.1329 14.8815 48.459 14.7062 48.8118 14.6353C49.1645 14.5645 49.5302 14.6007 49.8634 14.7401C50.1967 14.8795 50.484 15.1167 50.6872 15.4239C50.8906 15.7313 51 16.0942 51 16.4667C51 16.9665 50.8033 17.4429 50.4578 17.7919C50.1128 18.1403 49.6481 18.3333 49.1667 18.3333Z" fill="#143AA2" stroke="white" stroke-width="3"/>
</svg>
