<svg width="30" height="30" viewBox="0 0 30 30" fill="none" xmlns="http://www.w3.org/2000/svg">
<g id="whatsapp">
<path id="Vector" fill-rule="evenodd" clip-rule="evenodd" d="M15 30C23.2843 30 30 23.5081 30 15.5C30 7.49187 23.2843 1 15 1C6.71572 1 0 7.49187 0 15.5C0 18.1006 0.708214 20.5412 1.94836 22.6516L0 30L7.83735 28.2432C9.96579 29.3635 12.406 30 15 30ZM15 27.7693C22.0098 27.7693 27.6924 22.2762 27.6924 15.5C27.6924 8.72394 22.0098 3.23077 15 3.23077C7.99023 3.23077 2.3077 8.72394 2.3077 15.5C2.3077 18.1163 3.15482 20.5413 4.5984 22.5327L3.46154 26.6538L7.79992 25.6054C9.84579 26.9701 12.3264 27.7693 15 27.7693Z" fill="#BFC8D0"/>
<path id="Vector_2" d="M28 14.5C28 21.4035 22.1797 27 15 27C12.2616 27 9.72081 26.1858 7.62538 24.7955L3.18182 25.8636L4.34624 21.665C2.86766 19.6361 2 17.1655 2 14.5C2 7.59644 7.8203 2 15 2C22.1797 2 28 7.59644 28 14.5Z" fill="url(#paint0_linear_58_1519)"/>
<path id="Vector_3" fill-rule="evenodd" clip-rule="evenodd" d="M15 29C23.2843 29 30 22.5081 30 14.5C30 6.49187 23.2843 0 15 0C6.71572 0 0 6.49187 0 14.5C0 17.1006 0.708214 19.5412 1.94836 21.6516L0 29L7.83735 27.2432C9.96579 28.3635 12.406 29 15 29ZM15 26.7693C22.0098 26.7693 27.6924 21.2762 27.6924 14.5C27.6924 7.72389 22.0098 2.23077 15 2.23077C7.99023 2.23077 2.3077 7.72389 2.3077 14.5C2.3077 17.1163 3.15482 19.5413 4.5984 21.5327L3.46154 25.6538L7.79992 24.6054C9.84579 25.9701 12.3264 26.7693 15 26.7693Z" fill="white"/>
<path id="Vector_4" d="M11.0655 7.63618C10.7016 6.93974 10.1433 7.0014 9.57944 7.0014C8.57158 7.0014 7 8.1517 7 10.2926C7 12.0471 7.8114 13.9676 10.5455 16.8406C13.1842 19.6134 16.6513 21.0476 19.5295 20.9988C22.4078 20.95 23 18.5899 23 17.7929C23 17.4397 22.7699 17.2635 22.6115 17.2155C21.6306 16.767 19.8215 15.9313 19.4099 15.7743C18.9983 15.6173 18.7834 15.8297 18.6498 15.9452C18.2766 16.2841 17.5367 17.283 17.2833 17.5077C17.0299 17.7324 16.6522 17.6187 16.495 17.5338C15.9166 17.3126 14.3483 16.6479 13.0983 15.4932C11.5523 14.0653 11.4616 13.5739 11.1703 13.1366C10.9373 12.7868 11.1083 12.5722 11.1936 12.4783C11.5267 12.1122 11.9866 11.5467 12.1929 11.2658C12.3991 10.9848 12.2355 10.5582 12.1372 10.2926C11.7146 9.14985 11.3566 8.19328 11.0655 7.63618Z" fill="white"/>
</g>
<defs>
<linearGradient id="paint0_linear_58_1519" x1="26.375" y1="5.125" x2="2.8921" y2="27.9191" gradientUnits="userSpaceOnUse">
<stop stop-color="#5BD066"/>
<stop offset="1" stop-color="#27B43E"/>
</linearGradient>
</defs>
</svg>
