<svg width="41" height="22" viewBox="0 0 41 22" fill="none" xmlns="http://www.w3.org/2000/svg">
<g id="icon">
<path id="Vector" d="M24.9719 0H6.32992C5.93618 0.00154443 5.55901 0.158829 5.28059 0.437582C5.00218 0.716334 4.84508 1.09396 4.84354 1.48817V2.25791H7.82362C8.50913 2.25791 9.16655 2.53056 9.65128 3.01586C10.136 3.50117 10.4083 4.15939 10.4083 4.84572C10.4083 5.53205 10.136 6.19026 9.65128 6.67557C9.16655 7.16088 8.50913 7.43352 7.82362 7.43352H4.84354V8.22526H9.31733C10.0019 8.22526 10.6584 8.49752 11.1424 8.98214C11.6264 9.46676 11.8984 10.124 11.8984 10.8094C11.8984 11.4948 11.6264 12.152 11.1424 12.6367C10.6584 13.1213 10.0019 13.3935 9.31733 13.3935H4.84354V17.147C4.84373 17.5416 5.00039 17.92 5.2791 18.199C5.55781 18.4781 5.93577 18.6349 6.32992 18.6351H7.46484C7.55989 17.5166 8.07085 16.4745 8.8966 15.7151C9.72236 14.9557 10.8028 14.5343 11.924 14.5343C13.0452 14.5343 14.1256 14.9557 14.9514 15.7151C15.7771 16.4745 16.2881 17.5166 16.3831 18.6351H26.4656V1.48817C26.4624 1.09323 26.3037 0.715502 26.0241 0.436913C25.7445 0.158324 25.3664 0.001337 24.9719 0Z" fill="white"/>
<path id="Vector_2" d="M41 11.8387V17.8926C40.9801 18.1072 40.8769 18.3055 40.7126 18.4449C40.5484 18.5842 40.3361 18.6536 40.1214 18.6381H38.0031C37.908 17.5198 37.3972 16.4779 36.5715 15.7186C35.7459 14.9593 34.6657 14.538 33.5447 14.538C32.4236 14.538 31.3434 14.9593 30.5178 15.7186C29.6922 16.4779 29.1813 17.5198 29.0862 18.6381H27.9535V4.47191H33.1522C33.3951 4.46656 33.6309 4.55442 33.8112 4.71749L35.5084 6.33689H33.2899C33.0569 6.34094 32.8352 6.43742 32.6733 6.60514C32.5114 6.77285 32.4227 6.99806 32.4266 7.23126V9.9151C32.4245 10.0306 32.4453 10.1454 32.4875 10.2529C32.5298 10.3604 32.5929 10.4586 32.673 10.5417C32.7532 10.6248 32.8489 10.6913 32.9548 10.7374C33.0606 10.7834 33.1745 10.8082 33.2899 10.8102H40.2122C40.5058 11.0895 41 11.4421 41 11.8387Z" fill="white"/>
<path id="Vector_3" d="M11.9241 16.0256C11.3347 16.0256 10.7585 16.2006 10.2684 16.5285C9.77834 16.8563 9.39637 17.3223 9.17082 17.8675C8.94526 18.4127 8.88625 19.0126 9.00123 19.5914C9.11622 20.1702 9.40005 20.7018 9.81682 21.1191C10.2336 21.5364 10.7646 21.8205 11.3427 21.9356C11.9208 22.0508 12.5199 21.9917 13.0645 21.7659C13.609 21.54 14.0745 21.1576 14.4019 20.6669C14.7294 20.1763 14.9041 19.5994 14.9041 19.0093C14.9034 18.2182 14.5891 17.4598 14.0304 16.9004C13.4717 16.341 12.7142 16.0264 11.9241 16.0256Z" fill="white"/>
<path id="Vector_4" d="M36.5269 19.0105C36.5277 19.6012 36.3534 20.1789 36.0261 20.6704C35.6989 21.1619 35.2333 21.5452 34.6885 21.7717C34.1436 21.9983 33.5438 22.0579 32.9651 21.9431C32.3863 21.8283 31.8546 21.5443 31.4372 21.1268C31.0197 20.7094 30.7353 20.1774 30.62 19.5981C30.5046 19.0188 30.5634 18.4182 30.789 17.8724C31.0147 17.3266 31.3969 16.86 31.8874 16.5318C32.3779 16.2035 32.9547 16.0283 33.5447 16.0283C33.9361 16.0279 34.3238 16.1048 34.6855 16.2545C35.0473 16.4042 35.3761 16.6238 35.653 16.9007C35.93 17.1777 36.1497 17.5065 36.2997 17.8686C36.4496 18.2306 36.5268 18.6186 36.5269 19.0105Z" fill="white"/>
<path id="Vector_5" d="M9.31735 9.69116H1.11662C0.820472 9.69116 0.536456 9.80895 0.32705 10.0186C0.117643 10.2283 0 10.5126 0 10.8091C0 11.1056 0.117643 11.39 0.32705 11.5996C0.536456 11.8093 0.820472 11.9271 1.11662 11.9271H9.31735C9.61349 11.9271 9.89751 11.8093 10.1069 11.5996C10.3163 11.39 10.434 11.1056 10.434 10.8091C10.434 10.5126 10.3163 10.2283 10.1069 10.0186C9.89751 9.80895 9.61349 9.69116 9.31735 9.69116Z" fill="white"/>
<path id="Vector_6" d="M7.82368 3.72388H2.60304C2.30592 3.72388 2.02097 3.84205 1.81088 4.05239C1.60079 4.26274 1.48276 4.54803 1.48276 4.8455C1.48276 5.14298 1.60079 5.42827 1.81088 5.63861C2.02097 5.84896 2.30592 5.96713 2.60304 5.96713H7.82368C8.1208 5.96713 8.40574 5.84896 8.61584 5.63861C8.82593 5.42827 8.94396 5.14298 8.94396 4.8455C8.94396 4.54803 8.82593 4.26274 8.61584 4.05239C8.40574 3.84205 8.1208 3.72388 7.82368 3.72388Z" fill="white"/>
</g>
</svg>
